
<svg width="92" height="24" viewBox="0 0 92 24" fill="none" xmlns="http://www.w3.org/2000/svg">
    <path d="M10.3504 2.9924L18.2382 7.4962V16.5038L10.3504 21.0076L2.46271 16.5038V7.4962L10.3504 2.9924ZM10.3504 0.5C9.98789 0.5 9.62534 0.591825 9.29815 0.779848L1.05229 5.48916C0.402345 5.86084 0 6.54734 0 7.29068V16.7093C0 17.4527 0.402345 18.1392 1.05229 18.5108L9.29815 23.2202C9.62534 23.4082 9.98789 23.5 10.3504 23.5C10.713 23.5 11.0755 23.4082 11.4027 23.2202L19.6486 18.5108C20.2985 18.1392 20.7009 17.4527 20.7009 16.7093V7.29068C20.7009 6.54734 20.2985 5.86084 19.6486 5.48916L11.4027 0.779848C11.0755 0.591825 10.713 0.5 10.3504 0.5Z" fill="#261F3B"/>
    <path d="M6.39771 10.1942V13.8016C6.39771 14.0814 6.54803 14.3438 6.79563 14.4837L9.95691 16.2896C10.2045 16.4295 10.5052 16.4295 10.7528 16.2896L13.914 14.4837C14.1616 14.3438 14.312 14.0858 14.312 13.8016V10.1942C14.312 9.91431 14.1616 9.65196 13.914 9.51203L10.7528 7.70614C10.5052 7.56622 10.2045 7.56622 9.95691 7.70614L6.79563 9.51203C6.54803 9.65196 6.39771 9.90994 6.39771 10.1942Z" fill="#261F3B"/>
    <path d="M34.1153 13.15C30.6269 12.7477 28.708 11.038 28.708 8.15207C28.708 4.8901 31.2503 2.8612 35.3577 2.8612C39.4652 2.8612 41.8969 4.94694 42.2507 8.39257H39.5227C39.1734 6.17565 37.847 5.13059 35.3312 5.13059C32.9525 5.13059 31.3829 6.28059 31.3829 8.01652C31.3829 9.43325 32.4352 10.181 34.5177 10.4215L36.8433 10.7144C40.7076 11.1429 42.5999 12.8789 42.5999 15.9528C42.5999 19.0268 39.9781 21.1125 35.9767 21.1125C31.6526 21.1125 28.9512 18.9218 28.5709 15.5506H31.3299C31.7101 17.7981 33.2222 18.8388 36.0077 18.8388C38.3333 18.8388 39.8985 17.7412 39.8985 16.0053C39.8985 14.5361 38.7622 13.6528 36.5471 13.4123L34.1153 13.1456V13.15Z" fill="#261F3B"/>
    <path d="M42.37 3.10169H45.4252L49.8289 11.895L54.2901 3.10169H57.3187L51.1288 14.8378V20.907H48.4804V14.8378L42.37 3.10169Z" fill="#261F3B"/>
    <path d="M73.4877 3.10169V20.9026H70.6492L61.5146 6.81405V20.9026H58.8397V3.10169H62.2441L70.8393 16.5737V3.10169H73.4877Z" fill="#261F3B"/>
    <path d="M83.6348 2.83496C88.5557 2.83496 91.8497 6.57793 91.8497 12.2186C91.8497 17.5663 88.5513 21.1213 83.6348 21.1213C78.7182 21.1213 75.3889 17.5663 75.3889 12.2186C75.3889 6.57793 78.6607 2.83496 83.6348 2.83496ZM83.6348 5.29238C80.1463 5.29238 78.1213 7.85911 78.1213 12.2142C78.1213 16.2764 80.1463 18.6551 83.6348 18.6551C87.1232 18.6551 89.0952 16.2764 89.0952 12.2142C89.0952 7.85911 87.0967 5.29238 83.6348 5.29238Z" fill="#261F3B"/>
    <path d="M83.3783 15.7998L83.3695 17.3215L84.6959 18.0867L86.0311 17.3346L86.04 15.8173L84.7136 15.0477L83.3783 15.7998Z" fill="#261F3B"/>
    <path d="M83.4093 15.8173L83.4004 17.339L84.7268 18.1042L86.0621 17.3521L86.0709 15.8348L84.7445 15.0652L83.4093 15.8173Z" fill="#261F3B"/>
    <path d="M83.4402 15.8348L83.4314 17.3565L84.7578 18.1217L86.0931 17.3696L86.1019 15.8523L84.7755 15.0827L83.4402 15.8348Z" fill="#261F3B"/>
    <path d="M83.4712 15.8523L83.4579 17.3696L84.7843 18.1392L86.1196 17.3871L86.1284 15.8698L84.8064 15.1002L83.4712 15.8523Z" fill="#261F3B"/>
    <path d="M83.4977 15.8698L83.4889 17.3871L84.8153 18.1567L86.1505 17.4046L86.1594 15.8829L84.833 15.1177L83.4977 15.8698Z" fill="#261F3B"/>
    <path d="M83.5287 15.8873L83.5198 17.4046L84.8462 18.1742L86.1815 17.4221L86.1903 15.9004L84.8639 15.1352L83.5287 15.8873Z" fill="#261F3B"/>
    <path d="M83.5596 15.9048L83.5508 17.4221L84.8727 18.1916L86.208 17.4396L86.2168 15.9179L84.8948 15.1527L83.5596 15.9048Z" fill="#261F3B"/>
    <path d="M83.5861 15.9179L83.5773 17.4396L84.9037 18.2048L86.239 17.457L86.2478 15.9354L84.9214 15.1702L83.5861 15.9179Z" fill="#261F3B"/>
    <path d="M83.6171 15.9354L83.6082 17.457L84.9346 18.2223L86.2699 17.4702L86.2787 15.9529L84.9523 15.1833L83.6171 15.9354Z" fill="#261F3B"/>
    <path d="M83.648 15.9529L83.6392 17.4745L84.9656 18.2397L86.3009 17.4877L86.3097 15.9704L84.9833 15.2008L83.648 15.9529Z" fill="#261F3B"/>
    <path d="M83.6746 15.9704L83.6657 17.492L84.9921 18.2572L86.3274 17.5051L86.3362 15.9878L85.0098 15.2183L83.6746 15.9704Z" fill="#261F3B"/>
    <path d="M83.7055 15.9878L83.6967 17.5051L85.0231 18.2747L86.3583 17.5226L86.3672 16.0053L85.0408 15.2358L83.7055 15.9878Z" fill="#261F3B"/>
    <path d="M83.7365 16.0053L83.7276 17.5226L85.054 18.2922L86.3893 17.5401L86.3981 16.0185L85.0717 15.2532L83.7365 16.0053Z" fill="#261F3B"/>
    <path d="M83.7674 16.0228L83.7586 17.5401L85.0805 18.3097L86.4158 17.5576L86.4246 16.0359L85.1027 15.2707L83.7674 16.0228Z" fill="#261F3B"/>
    <path d="M83.7939 16.0403L83.7851 17.5576L85.1115 18.3272L86.4468 17.5751L86.4556 16.0534L85.1292 15.2882L83.7939 16.0403Z" fill="#261F3B"/>
    <path d="M83.8249 16.0578L83.816 17.5751L85.1425 18.3447L86.4777 17.5926L86.4865 16.0709L85.1601 15.3057L83.8249 16.0578Z" fill="#261F3B"/>
    <path d="M83.8558 16.0709L83.847 17.5926L85.1734 18.3578L86.5042 17.6057L86.5175 16.0884L85.1911 15.3188L83.8558 16.0709Z" fill="#261F3B"/>
    <path d="M83.8824 16.0884L83.8735 17.6101L85.1999 18.3753L86.5352 17.6232L86.544 16.1059L85.2176 15.3363L83.8824 16.0884Z" fill="#261F3B"/>
    <path d="M83.9133 16.1059L83.9045 17.6276L85.2309 18.3928L86.5661 17.6407L86.575 16.1234L85.2486 15.3538L83.9133 16.1059Z" fill="#261F3B"/>
    <path d="M83.9443 16.1234L83.9354 17.6451L85.2618 18.4103L86.5971 17.6582L86.6059 16.1409L85.2795 15.3713L83.9443 16.1234Z" fill="#261F3B"/>
    <path d="M83.9752 16.1409L83.9619 17.6582L85.2884 18.4278L86.6236 17.6757L86.6325 16.1584L85.306 15.3888L83.9752 16.1409Z" fill="#261F3B"/>
    <path d="M84.0017 16.1584L83.9929 17.6757L85.3193 18.4453L86.6546 17.6932L86.6634 16.1715L85.337 15.4063L84.0017 16.1584Z" fill="#261F3B"/>
    <path d="M84.0327 16.1759L84.0238 17.6932L85.3502 18.4627L86.6855 17.7107L86.6943 16.189L85.3679 15.4238L84.0327 16.1759Z" fill="#261F3B"/>
    <path d="M84.0636 16.1934L84.0548 17.7107L85.3768 18.4802L86.712 17.7281L86.7209 16.2065L85.3989 15.4413L84.0636 16.1934Z" fill="#261F3B"/>
    <path d="M84.0902 16.2108L84.0813 17.7281L85.4077 18.4977L86.743 17.7456L86.7518 16.224L85.4254 15.4588L84.0902 16.2108Z" fill="#261F3B"/>
    <path d="M84.1211 16.224L84.1123 17.7456L85.4387 18.5108L86.7739 17.7588L86.7828 16.2415L85.4564 15.4719L84.1211 16.224Z" fill="#261F3B"/>
    <path d="M84.1521 16.2415L84.1432 17.7631L85.4696 18.5283L86.8005 17.7762L86.8137 16.2589L85.4873 15.4894L84.1521 16.2415Z" fill="#261F3B"/>
    <path d="M84.1786 16.2589L84.1698 17.7806L85.4962 18.5458L86.8314 17.7937L86.8403 16.2764L85.5139 15.5069L84.1786 16.2589Z" fill="#261F3B"/>
    <path d="M84.2095 16.2764L84.2007 17.7981L85.5271 18.5633L86.8624 17.8112L86.8712 16.2939L85.5448 15.5243L84.2095 16.2764Z" fill="#261F3B"/>
    <path d="M84.2405 16.2939L84.2316 17.8112L85.5581 18.5808L86.8933 17.8287L86.9022 16.3114L85.5757 15.5418L84.2405 16.2939Z" fill="#261F3B"/>
    <path d="M84.2714 16.3114L84.2582 17.8287L85.5846 18.5983L86.9198 17.8462L86.9287 16.3245L85.6023 15.5593L84.2714 16.3114Z" fill="#261F3B"/>
    <path d="M84.298 16.3289L84.2891 17.8462L85.6155 18.6158L86.9508 17.8637L86.9596 16.342L85.6332 15.5768L84.298 16.3289Z" fill="#261F3B"/>
    <path d="M84.3289 16.3464L84.3201 17.8637L85.6465 18.6333L86.9817 17.8812L86.9906 16.3595L85.6642 15.5943L84.3289 16.3464Z" fill="#261F3B"/>
    <path d="M84.3599 16.3595L84.351 17.8812L85.673 18.6464L87.0083 17.8987L87.0171 16.377L85.6951 15.6118L84.3599 16.3595Z" fill="#261F3B"/>
    <path d="M84.3864 16.377L84.3775 17.8987L85.704 18.6639L87.0392 17.9118L87.0481 16.3945L85.7217 15.6249L84.3864 16.377Z" fill="#261F3B"/>
    <path d="M84.4173 16.3945L84.4085 17.9162L85.7349 18.6814L87.0702 17.9293L87.079 16.412L85.7526 15.6424L84.4173 16.3945Z" fill="#261F3B"/>
    <path d="M84.4483 16.412L84.4395 17.9337L85.7659 18.6989L87.1011 17.9468L87.11 16.4295L85.7836 15.6599L84.4483 16.412Z" fill="#261F3B"/>
    <path d="M84.4748 16.4295L84.466 17.9468L85.7924 18.7164L87.1276 17.9643L87.1365 16.447L85.8101 15.6774L84.4748 16.4295Z" fill="#261F3B"/>
    <path d="M84.5058 16.447L84.4969 17.9643L85.8233 18.7339L87.1586 17.9818L87.1674 16.4601L85.841 15.6949L84.5058 16.447Z" fill="#261F3B"/>
    <path d="M84.5367 16.4645L84.5279 17.9818L85.8543 18.7513L87.1895 17.9992L87.1984 16.4776L85.872 15.7124L84.5367 16.4645Z" fill="#261F3B"/>
    <path d="M84.5677 16.482L84.5588 17.9993L85.8808 18.7688L87.2161 18.0167L87.2249 16.4951L85.9029 15.7299L84.5677 16.482Z" fill="#261F3B"/>
    <path d="M84.5942 16.4994L84.5854 18.0167L85.9118 18.7863L87.247 18.0342L87.2559 16.5126L85.9295 15.7473L84.5942 16.4994Z" fill="#261F3B"/>
    <path d="M84.6252 16.5126L84.6163 18.0342L85.9427 18.7994L87.278 18.0517L87.2868 16.53L85.9604 15.7648L84.6252 16.5126Z" fill="#261F3B"/>
    <path d="M84.6561 16.53L84.6473 18.0517L85.9737 18.8169L87.3045 18.0648L87.3178 16.5475L85.9914 15.778L84.6561 16.53Z" fill="#261F3B"/>
    <path d="M84.6826 16.5475L84.6738 18.0692L86.0002 18.8344L87.3355 18.0823L87.3443 16.565L86.0179 15.7954L84.6826 16.5475Z" fill="#261F3B"/>
    <path d="M84.7136 16.565L84.7047 18.0867L86.0312 18.8519L87.3664 18.0998L87.3753 16.5825L86.0488 15.8129L84.7136 16.565Z" fill="#261F3B"/>
    <path d="M84.7445 16.5825L84.7357 18.0998L86.0621 18.8694L87.3974 18.1173L87.4062 16.6L86.0798 15.8304L84.7445 16.5825Z" fill="#261F3B"/>
    <path d="M84.7755 16.6L84.7622 18.1173L86.0886 18.8869L87.4239 18.1348L87.4327 16.6131L86.1063 15.8479L84.7755 16.6Z" fill="#261F3B"/>
    <path d="M84.802 16.6175L84.7932 18.1348L86.1196 18.9044L87.4548 18.1523L87.4637 16.6306L86.1373 15.8654L84.802 16.6175Z" fill="#261F3B"/>
    <path d="M84.8329 16.635L84.8241 18.1523L86.1505 18.9219L87.4858 18.1698L87.4946 16.6481L86.1682 15.8829L84.8329 16.635Z" fill="#261F3B"/>
    <path d="M84.8639 16.6525L84.8551 18.1698L86.1771 18.9394L87.5123 18.1873L87.5211 16.6656L86.1992 15.9004L84.8639 16.6525Z" fill="#261F3B"/>
    <path d="M84.8904 16.6656L84.8816 18.1873L86.208 18.9525L87.5433 18.2004L87.5521 16.6831L86.2257 15.9135L84.8904 16.6656Z" fill="#261F3B"/>
    <path d="M84.9214 16.6831L84.9125 18.2048L86.2389 18.97L87.5742 18.2179L87.583 16.7006L86.2566 15.931L84.9214 16.6831Z" fill="#261F3B"/>
    <path d="M84.9523 16.7006L84.9435 18.2223L86.2699 18.9875L87.6007 18.2354L87.614 16.7181L86.2876 15.9485L84.9523 16.7006Z" fill="#261F3B"/>
    <path d="M84.9789 16.7181L84.97 18.2397L86.2964 19.005L87.6317 18.2529L87.6405 16.7356L86.3141 15.966L84.9789 16.7181Z" fill="#261F3B"/>
    <path d="M85.0098 16.7356L85.001 18.2529L86.3274 19.0224L87.6626 18.2704L87.6715 16.7531L86.3451 15.9835L85.0098 16.7356Z" fill="#261F3B"/>
    <path d="M85.0408 16.7531L85.0319 18.2704L86.3583 19.0399L87.6936 18.2878L87.7024 16.7662L86.376 16.001L85.0408 16.7531Z" fill="#261F3B"/>
    <path d="M85.0717 16.7705L85.0584 18.2878L86.3849 19.0574L87.7201 18.3053L87.7289 16.7837L86.4025 16.0185L85.0717 16.7705Z" fill="#261F3B"/>
    <path d="M85.0982 16.788L85.0894 18.3053L86.4158 19.0749L87.7511 18.3228L87.7599 16.8012L86.4335 16.0359L85.0982 16.788Z" fill="#261F3B"/>
    <path d="M85.1292 16.8055L85.1203 18.3228L86.4468 19.0924L87.782 18.3403L87.7909 16.8186L86.4644 16.0534L85.1292 16.8055Z" fill="#261F3B"/>
    <path d="M85.1601 16.8186L85.1513 18.3403L86.4733 19.1055L87.8085 18.3534L87.8174 16.8361L86.4954 16.0666L85.1601 16.8186Z" fill="#261F3B"/>
    <path d="M85.1867 16.8361L85.1778 18.3578L86.5042 19.123L87.8395 18.3709L87.8483 16.8536L86.5219 16.084L85.1867 16.8361Z" fill="#261F3B"/>
    <path d="M85.2176 16.8536L85.2088 18.3753L86.5352 19.1405L87.8704 18.3884L87.8793 16.8711L86.5529 16.1015L85.2176 16.8536Z" fill="#261F3B"/>
    <path d="M85.2486 16.8711L85.2397 18.3928L86.5661 19.158L87.9014 18.4059L87.9102 16.8886L86.5838 16.119L85.2486 16.8711Z" fill="#261F3B"/>
    <path d="M85.2751 16.8886L85.2663 18.4059L86.5927 19.1755L87.9279 18.4234L87.9368 16.9061L86.6103 16.1365L85.2751 16.8886Z" fill="#261F3B"/>
    <path d="M85.306 16.9061L85.2972 18.4234L86.6236 19.193L87.9589 18.4409L87.9677 16.9192L86.6413 16.154L85.306 16.9061Z" fill="#261F3B"/>
    <path d="M85.337 16.9236L85.3282 18.4409L86.6546 19.2105L87.9898 18.4584L87.9987 16.9367L86.6723 16.1715L85.337 16.9236Z" fill="#261F3B"/>
    <path d="M85.3679 16.9411L85.3591 18.4584L86.6811 19.228L88.0164 18.4759L88.0252 16.9542L86.7032 16.189L85.3679 16.9411Z" fill="#261F3B"/>
    <path d="M85.3945 16.9542L85.3856 18.4759L86.712 19.2411L88.0473 18.4934L88.0561 16.9717L86.7297 16.2065L85.3945 16.9542Z" fill="#261F3B"/>
    <path d="M85.4254 16.9717L85.4166 18.4934L86.743 19.2586L88.0783 18.5065L88.0871 16.9892L86.7607 16.2196L85.4254 16.9717Z" fill="#261F3B"/>
    <path d="M85.4564 16.9892L85.4475 18.5108L86.7739 19.2761L88.1048 18.524L88.118 17.0067L86.7916 16.2371L85.4564 16.9892Z" fill="#261F3B"/>
    <path d="M85.4829 17.0067L85.4741 18.5283L86.8005 19.2935L88.1357 18.5415L88.1446 17.0242L86.8182 16.2546L85.4829 17.0067Z" fill="#261F3B"/>
    <path d="M85.5138 17.0242L85.505 18.5415L86.8314 19.311L88.1667 18.5589L88.1755 17.0416L86.8491 16.2721L85.5138 17.0242Z" fill="#261F3B"/>
    <path d="M85.5448 17.0416L85.536 18.5589L86.8624 19.3285L88.1976 18.5764L88.2065 17.0548L86.8801 16.2896L85.5448 17.0416Z" fill="#261F3B"/>
    <path d="M85.5757 17.0591L85.5625 18.5764L86.8889 19.346L88.2241 18.5939L88.233 17.0723L86.9066 16.307L85.5757 17.0591Z" fill="#261F3B"/>
    <path d="M85.6023 17.0766L85.5934 18.5939L86.9198 19.3635L88.2551 18.6114L88.2639 17.0897L86.9375 16.3245L85.6023 17.0766Z" fill="#261F3B"/>
    <path d="M85.6332 17.0941L85.6244 18.6114L86.9508 19.381L88.2861 18.6289L88.2949 17.1072L86.9685 16.342L85.6332 17.0941Z" fill="#261F3B"/>
    <path d="M85.6642 17.1072L85.6553 18.6289L86.9773 19.3941L88.3126 18.6464L88.3214 17.1247L86.9994 16.3595L85.6642 17.1072Z" fill="#261F3B"/>
    <path d="M85.6907 17.1247L85.6819 18.6464L87.0083 19.4116L88.3435 18.6595L88.3524 17.1422L87.026 16.3726L85.6907 17.1247Z" fill="#261F3B"/>
    <path d="M85.7217 17.1422L85.7128 18.6639L87.0392 19.4291L88.3745 18.677L88.3833 17.1597L87.0569 16.3901L85.7217 17.1422Z" fill="#261F3B"/>
    <path d="M85.7526 17.1597L85.7438 18.6814L87.0702 19.4466L88.401 18.6945L88.4143 17.1772L87.0879 16.4076L85.7526 17.1597Z" fill="#261F3B"/>
    <path d="M85.7791 17.1772L85.7703 18.6945L87.0967 19.4641L88.432 18.712L88.4408 17.1947L87.1144 16.4251L85.7791 17.1772Z" fill="#261F3B"/>
    <path d="M85.8101 17.1947L85.8012 18.712L87.1277 19.4816L88.4629 18.7295L88.4718 17.2078L87.1453 16.4426L85.8101 17.1947Z" fill="#261F3B"/>
    <path d="M85.841 17.2122L85.8322 18.7295L87.1586 19.4991L88.4938 18.747L88.5027 17.2253L87.1763 16.4601L85.841 17.2122Z" fill="#261F3B"/>
    <path d="M85.872 17.2297L85.8587 18.747L87.1851 19.5166L88.5204 18.7645L88.5292 17.2428L87.2028 16.4776L85.872 17.2297Z" fill="#261F3B"/>
    <path d="M85.8985 17.2472L85.8897 18.7645L87.2161 19.534L88.5513 18.782L88.5602 17.2603L87.2338 16.4951L85.8985 17.2472Z" fill="#261F3B"/>
    <path d="M85.9295 17.2603L85.9206 18.782L87.247 19.5472L88.5823 18.7951L88.5911 17.2778L87.2647 16.5082L85.9295 17.2603Z" fill="#261F3B"/>
    <path d="M85.9604 17.2778L85.9516 18.7994L87.2736 19.5646L88.6088 18.8126L88.6177 17.2953L87.2957 16.5257L85.9604 17.2778Z" fill="#261F3B"/>
    <path d="M85.9869 17.2953L85.9781 18.8169L87.3045 19.5821L88.6398 18.83L88.6486 17.3127L87.3222 16.5432L85.9869 17.2953Z" fill="#261F3B"/>
    <path d="M86.0179 17.3127L86.009 18.8344L87.3355 19.5996L88.6707 18.8475L88.6796 17.3302L87.3532 16.5607L86.0179 17.3127Z" fill="#261F3B"/>
    <path d="M86.0488 17.3302L86.04 18.8475L87.3664 19.6171L88.7017 18.865L88.7105 17.3477L87.3841 16.5781L86.0488 17.3302Z" fill="#261F3B"/>
    <path d="M86.0754 17.3477L86.0665 18.865L87.3929 19.6346L88.7282 18.8825L88.737 17.3608L87.4106 16.5956L86.0754 17.3477Z" fill="#261F3B"/>
    <path d="M86.1063 17.3652L86.0975 18.8825L87.4239 19.6521L88.7591 18.9L88.768 17.3783L87.4416 16.6131L86.1063 17.3652Z" fill="#261F3B"/>
    <path d="M86.1373 17.3827L86.1284 18.9L87.4548 19.6696L88.7901 18.9175L88.7989 17.3958L87.4725 16.6306L86.1373 17.3827Z" fill="#261F3B"/>
    <path d="M86.1682 17.4002L86.1594 18.9175L87.4814 19.6871L88.8166 18.935L88.8255 17.4133L87.5035 16.6481L86.1682 17.4002Z" fill="#261F3B"/>
    <path d="M86.1947 17.4133L86.1859 18.935L87.5123 19.7002L88.8476 18.9481L88.8564 17.4308L87.53 16.6612L86.1947 17.4133Z" fill="#261F3B"/>
    <path d="M86.2257 17.4308L86.2168 18.9525L87.5433 19.7177L88.8785 18.9656L88.8874 17.4483L87.5609 16.6787L86.2257 17.4308Z" fill="#261F3B"/>
    <path d="M86.2566 17.4483L86.2478 18.97L87.5742 19.7352L88.905 18.9831L88.9183 17.4658L87.5919 16.6962L86.2566 17.4483Z" fill="#261F3B"/>
    <path d="M86.2832 17.4658L86.2743 18.9875L87.6007 19.7527L88.936 19.0006L88.9448 17.4833L87.6184 16.7137L86.2832 17.4658Z" fill="#261F3B"/>
    <path d="M86.3141 17.4833L86.3053 19.0006L87.6317 19.7702L88.9669 19.0181L88.9758 17.5008L87.6494 16.7312L86.3141 17.4833Z" fill="#261F3B"/>
    <path d="M86.3451 17.5008L86.3362 19.0181L87.6626 19.7877L88.9979 19.0356L89.0067 17.5139L87.6803 16.7487L86.3451 17.5008Z" fill="#261F3B"/>
    <path d="M86.376 17.5183L86.3627 19.0356L87.6892 19.8051L89.0244 19.0531L89.0333 17.5314L87.7068 16.7662L86.376 17.5183Z" fill="#261F3B"/>
    <path d="M86.4025 17.5358L86.3937 19.0531L87.7201 19.8226L89.0554 19.0705L89.0642 17.5489L87.7378 16.7837L86.4025 17.5358Z" fill="#261F3B"/>
    <path d="M86.4335 17.5489L86.4247 19.0705L87.7511 19.8358L89.0863 19.088L89.0952 17.5664L87.7687 16.8012L86.4335 17.5489Z" fill="#261F3B"/>
    <path d="M86.4644 17.5664L86.4556 19.088L87.7776 19.8532L89.1128 19.1012L89.1217 17.5839L87.7997 16.8143L86.4644 17.5664Z" fill="#261F3B"/>
    <path d="M86.491 17.5839L86.4821 19.1055L87.8085 19.8707L89.1438 19.1186L89.1526 17.6013L87.8262 16.8318L86.491 17.5839Z" fill="#261F3B"/>
    <path d="M86.5219 17.6013L86.5131 19.123L87.8395 19.8882L89.1747 19.1361L89.1836 17.6188L87.8572 16.8493L86.5219 17.6013Z" fill="#261F3B"/>
    <path d="M86.5529 17.6188L86.544 19.1361L87.8704 19.9057L89.2013 19.1536L89.2145 17.6363L87.8881 16.8667L86.5529 17.6188Z" fill="#261F3B"/>
    <path d="M86.5794 17.6363L86.5706 19.1536L87.897 19.9232L89.2322 19.1711L89.2411 17.6494L87.9147 16.8842L86.5794 17.6363Z" fill="#261F3B"/>
    <path d="M86.6103 17.6538L86.6015 19.1711L87.9279 19.9407L89.2632 19.1886L89.272 17.6669L87.9456 16.9017L86.6103 17.6538Z" fill="#261F3B"/>
    <path d="M86.6413 17.6713L86.6325 19.1886L87.9589 19.9582L89.2941 19.2061L89.303 17.6844L87.9766 16.9192L86.6413 17.6713Z" fill="#261F3B"/>
    <path d="M86.6722 17.6888L86.659 19.2061L87.9854 19.9757L89.3207 19.2236L89.3295 17.7019L88.0031 16.9367L86.6722 17.6888Z" fill="#261F3B"/>
    <path d="M86.6988 17.7019L86.6899 19.2236L88.0164 19.9888L89.3516 19.2367L89.3604 17.7194L88.034 16.9542L86.6988 17.7019Z" fill="#261F3B"/>
    <path d="M86.7297 17.7194L86.7209 19.2411L88.0473 20.0063L89.3826 19.2542L89.3914 17.7369L88.065 16.9673L86.7297 17.7194Z" fill="#261F3B"/>
    <path d="M86.7607 17.7369L86.7518 19.2586L88.0738 20.0238L89.4091 19.2717L89.4179 17.7544L88.0959 16.9848L86.7607 17.7369Z" fill="#261F3B"/>
    <path d="M86.7872 17.7544L86.7784 19.2761L88.1048 20.0413L89.44 19.2892L89.4489 17.7719L88.1225 17.0023L86.7872 17.7544Z" fill="#261F3B"/>
    <path d="M86.8182 17.7719L86.8093 19.2892L88.1357 20.0588L89.471 19.3067L89.4798 17.7894L88.1534 17.0198L86.8182 17.7719Z" fill="#261F3B"/>
    <path d="M86.8491 17.7894L86.8403 19.3067L88.1667 20.0762L89.5019 19.3242L89.5108 17.8025L88.1844 17.0373L86.8491 17.7894Z" fill="#261F3B"/>
    <path d="M86.8756 17.8069L86.8668 19.3242L88.1932 20.0937L89.5285 19.3416L89.5373 17.82L88.2109 17.0548L86.8756 17.8069Z" fill="#261F3B"/>
    <path d="M86.9066 17.8243L86.8977 19.3416L88.2241 20.1112L89.5594 19.3591L89.5683 17.8375L88.2418 17.0723L86.9066 17.8243Z" fill="#261F3B"/>
    <path d="M86.9375 17.8418L86.9287 19.3591L88.2551 20.1287L89.5904 19.3766L89.5992 17.855L88.2728 17.0897L86.9375 17.8418Z" fill="#261F3B"/>
    <path d="M86.9685 17.855L86.9596 19.3766L88.2816 20.1418L89.6169 19.3897L89.6257 17.8724L88.3037 17.1029L86.9685 17.855Z" fill="#261F3B"/>
    <path d="M86.995 17.8724L86.9862 19.3941L88.3126 20.1593L89.6478 19.4072L89.6567 17.8899L88.3303 17.1204L86.995 17.8724Z" fill="#261F3B"/>
    <path d="M87.026 17.8899L87.0171 19.4116L88.3435 20.1768L89.6788 19.4247L89.6876 17.9074L88.3612 17.1378L87.026 17.8899Z" fill="#261F3B"/>
    <path d="M87.0569 17.9074L87.0481 19.4291L88.3745 20.1943L89.7053 19.4422L89.7186 17.9249L88.3922 17.1553L87.0569 17.9074Z" fill="#261F3B"/>
    <path d="M87.0834 17.9249L87.0746 19.4422L88.401 20.2118L89.7363 19.4597L89.7451 17.9424L88.4187 17.1728L87.0834 17.9249Z" fill="#261F3B"/>
    <path d="M87.1144 17.9424L87.1055 19.4597L88.432 20.2293L89.7672 19.4772L89.7761 17.9555L88.4496 17.1903L87.1144 17.9424Z" fill="#261F3B"/>
    <path d="M87.1453 17.9599L87.1365 19.4772L88.4629 20.2468L89.7982 19.4947L89.807 17.973L88.4806 17.2078L87.1453 17.9599Z" fill="#261F3B"/>
    <path d="M87.1763 17.9774L87.163 19.4947L88.4894 20.2643L89.8247 19.5122L89.8335 17.9905L88.5071 17.2253L87.1763 17.9774Z" fill="#261F3B"/>
    <path d="M87.2028 17.9949L87.194 19.5122L88.5204 20.2774L89.8556 19.5297L89.8645 18.008L88.5381 17.2428L87.2028 17.9949Z" fill="#261F3B"/>
    <path d="M87.2338 18.008L87.2249 19.5297L88.5513 20.2949L89.8866 19.5428L89.8954 18.0255L88.569 17.2559L87.2338 18.008Z" fill="#261F3B"/>
    <path d="M87.2647 18.0255L87.2559 19.5472L88.5779 20.3124L89.9131 19.5603L89.922 18.043L88.6 17.2734L87.2647 18.0255Z" fill="#261F3B"/>
    <path d="M87.2912 18.043L87.2824 19.5646L88.6088 20.3299L89.9441 19.5778L89.9529 18.0605L88.6265 17.2909L87.2912 18.043Z" fill="#261F3B"/>
    <path d="M87.3222 18.0605L87.3133 19.5821L88.6398 20.3474L89.975 19.5953L89.9839 18.078L88.6574 17.3084L87.3222 18.0605Z" fill="#261F3B"/>
    <path d="M87.3531 18.078L87.3443 19.5953L88.6707 20.3648L90.0015 19.6127L90.0148 18.0954L88.6884 17.3259L87.3531 18.078Z" fill="#261F3B"/>
    <path d="M87.3797 18.0954L87.3708 19.6127L88.6972 20.3823L90.0325 19.6302L90.0413 18.1086L88.7149 17.3434L87.3797 18.0954Z" fill="#261F3B"/>
    <path d="M87.4106 18.1129L87.4018 19.6302L88.7282 20.3998L90.0634 19.6477L90.0723 18.1261L88.7459 17.3608L87.4106 18.1129Z" fill="#261F3B"/>
    <path d="M87.4416 18.1304L87.4327 19.6477L88.7591 20.4173L90.0944 19.6652L90.1032 18.1435L88.7768 17.3783L87.4416 18.1304Z" fill="#261F3B"/>
    <path d="M87.4725 18.1435L87.4593 19.6652L88.7857 20.4304L90.1209 19.6827L90.1298 18.161L88.8034 17.3958L87.4725 18.1435Z" fill="#261F3B"/>
    <path d="M87.499 18.161L87.4902 19.6827L88.8166 20.4479L90.1519 19.6958L90.1607 18.1785L88.8343 17.4089L87.499 18.161Z" fill="#261F3B"/>
    <path d="M87.53 18.1785L87.5211 19.7002L88.8476 20.4654L90.1828 19.7133L90.1917 18.196L88.8653 17.4264L87.53 18.1785Z" fill="#261F3B"/>
    <path d="M87.5609 18.196L87.5521 19.7177L88.8741 20.4829L90.2094 19.7308L90.2182 18.2135L88.8962 17.4439L87.5609 18.196Z" fill="#261F3B"/>
    <path d="M87.5875 18.2135L87.5786 19.7308L88.905 20.5004L90.2403 19.7483L90.2491 18.231L88.9227 17.4614L87.5875 18.2135Z" fill="#261F3B"/>
    <path d="M87.6184 18.231L87.6096 19.7483L88.936 20.5179L90.2712 19.7658L90.2801 18.2441L88.9537 17.4789L87.6184 18.231Z" fill="#261F3B"/>
    <path d="M87.6494 18.2485L87.6405 19.7658L88.9669 20.5354L90.3022 19.7833L90.311 18.2616L88.9846 17.4964L87.6494 18.2485Z" fill="#261F3B"/>
    <path d="M87.6759 18.266L87.6671 19.7833L88.9935 20.5529L90.3287 19.8008L90.3376 18.2791L89.0112 17.5139L87.6759 18.266Z" fill="#261F3B"/>
    <path d="M87.7069 18.2835L87.698 19.8008L89.0244 20.5704L90.3597 19.8183L90.3685 18.2966L89.0421 17.5314L87.7069 18.2835Z" fill="#261F3B"/>
    <path d="M87.7378 18.2966L87.729 19.8183L89.0554 20.5835L90.3906 19.8314L90.3995 18.3141L89.0731 17.5489L87.7378 18.2966Z" fill="#261F3B"/>
    <path d="M87.7687 18.3141L87.7599 19.8358L89.0819 20.601L90.4171 19.8489L90.426 18.3316L89.104 17.562L87.7687 18.3141Z" fill="#261F3B"/>
    <path d="M87.7953 18.3316L87.7864 19.8532L89.1129 20.6185L90.4481 19.8664L90.4569 18.3491L89.1305 17.5795L87.7953 18.3316Z" fill="#261F3B"/>
    <path d="M87.8262 18.3491L87.8174 19.8707L89.1438 20.6359L90.4791 19.8839L90.4879 18.3666L89.1615 17.597L87.8262 18.3491Z" fill="#261F3B"/>
    <path d="M87.8572 18.3666L87.8483 19.8839L89.1747 20.6534L90.5056 19.9013L90.5188 18.384L89.1924 17.6145L87.8572 18.3666Z" fill="#261F3B"/>
    <path d="M87.8837 18.384L87.8749 19.9013L89.2013 20.6709L90.5365 19.9188L90.5454 18.3972L89.219 17.632L87.8837 18.384Z" fill="#261F3B"/>
    <path d="M87.9147 18.4015L87.9058 19.9188L89.2322 20.6884L90.5675 19.9363L90.5763 18.4146L89.2499 17.6494L87.9147 18.4015Z" fill="#261F3B"/>
    <path d="M87.9456 18.419L87.9368 19.9363L89.2632 20.7059L90.5984 19.9538L90.6073 18.4321L89.2809 17.6669L87.9456 18.419Z" fill="#261F3B"/>
    <path d="M87.9766 18.4365L87.9633 19.9538L89.2897 20.7234L90.625 19.9713L90.6338 18.4496L89.3074 17.6844L87.9766 18.4365Z" fill="#261F3B"/>
    <path d="M88.0031 18.4496L87.9942 19.9713L89.3207 20.7365L90.6559 19.9844L90.6648 18.4671L89.3383 17.6975L88.0031 18.4496Z" fill="#261F3B"/>
    <path d="M88.034 18.4671L88.0252 19.9888L89.3516 20.754L90.6869 20.0019L90.6957 18.4846L89.3693 17.715L88.034 18.4671Z" fill="#261F3B"/>
    <path d="M88.065 18.4846L88.0561 20.0063L89.3781 20.7715L90.7134 20.0194L90.7222 18.5021L89.4002 17.7325L88.065 18.4846Z" fill="#261F3B"/>
    <path d="M88.0915 18.5021L88.0827 20.0238L89.4091 20.789L90.7443 20.0369L90.7532 18.5196L89.4268 17.75L88.0915 18.5021Z" fill="#261F3B"/>
    <path d="M88.1225 18.5196L88.1136 20.0369L89.44 20.8065L90.7753 20.0544L90.7841 18.5371L89.4577 17.7675L88.1225 18.5196Z" fill="#261F3B"/>
    <path d="M88.1534 18.5371L88.1446 20.0544L89.471 20.824L90.8018 20.0719L90.8151 18.5502L89.4887 17.785L88.1534 18.5371Z" fill="#261F3B"/>
    <path d="M88.1799 18.5546L88.1711 20.0719L89.4975 20.8415L90.8328 20.0894L90.8416 18.5677L89.5152 17.8025L88.1799 18.5546Z" fill="#261F3B"/>
    <path d="M88.2109 18.5721L88.202 20.0894L89.5285 20.8589L90.8637 20.1069L90.8726 18.5852L89.5461 17.82L88.2109 18.5721Z" fill="#261F3B"/>
    <path d="M88.2418 18.5896L88.233 20.1069L89.5594 20.8721L90.8947 20.1243L90.9035 18.6027L89.5771 17.8375L88.2418 18.5896Z" fill="#261F3B"/>
    <path d="M88.2728 18.6027L88.2595 20.1243L89.5859 20.8896L90.9212 20.1375L90.93 18.6202L89.6036 17.8506L88.2728 18.6027Z" fill="#261F3B"/>
    <path d="M88.2993 18.6202L88.2905 20.1418L89.6169 20.907L90.9521 20.155L90.961 18.6377L89.6346 17.8681L88.2993 18.6202Z" fill="#261F3B"/>
    <path d="M88.3303 18.6377L88.3214 20.1593L89.6478 20.9245L90.9831 20.1724L90.9919 18.6551L89.6655 17.8856L88.3303 18.6377Z" fill="#261F3B"/>
    <path d="M88.3612 18.6551L88.3524 20.1768L89.6744 20.942L91.0096 20.1899L91.0185 18.6726L89.6965 17.9031L88.3612 18.6551Z" fill="#261F3B"/>
    <path d="M88.3878 18.6726L88.3789 20.1899L89.7053 20.9595L91.0406 20.2074L91.0494 18.6901L89.723 17.9205L88.3878 18.6726Z" fill="#261F3B"/>
    <path d="M88.4187 18.6901L88.4099 20.2074L89.7363 20.977L91.0715 20.2249L91.0804 18.7032L89.7539 17.938L88.4187 18.6901Z" fill="#261F3B"/>
    <path d="M88.4496 18.7076L88.4408 20.2249L89.7672 20.9945L91.1025 20.2424L91.1113 18.7207L89.7849 17.9555L88.4496 18.7076Z" fill="#261F3B"/>
    <path d="M88.4762 18.7251L88.4673 20.2424L89.7937 21.012L91.129 20.2599L91.1378 18.7382L89.8114 17.973L88.4762 18.7251Z" fill="#261F3B"/>
    <path d="M88.5071 18.7382L88.4983 20.2599L89.8247 21.0251L91.1599 20.2774L91.1688 18.7557L89.8424 17.9905L88.5071 18.7382Z" fill="#261F3B"/>
    <path d="M88.5381 18.7557L88.5292 20.2774L89.8556 21.0426L91.1909 20.2905L91.1997 18.7732L89.8733 18.0036L88.5381 18.7557Z" fill="#261F3B"/>
    <path d="M88.569 18.7732L88.5602 20.2949L89.8822 21.0601L91.2174 20.308L91.2263 18.7907L89.9043 18.0211L88.569 18.7732Z" fill="#261F3B"/>
    <path d="M88.5955 18.7907L88.5867 20.3124L89.9131 21.0776L91.2484 20.3255L91.2572 18.8082L89.9308 18.0386L88.5955 18.7907Z" fill="#261F3B"/>
    <path d="M88.6265 18.8082L88.6176 20.3255L89.9441 21.0951L91.2793 20.343L91.2882 18.8257L89.9617 18.0561L88.6265 18.8082Z" fill="#261F3B"/>
    <path d="M88.6574 18.8257L88.6486 20.343L89.975 21.1126L91.3059 20.3605L91.3191 18.8388L89.9927 18.0736L88.6574 18.8257Z" fill="#261F3B"/>
    <path d="M88.684 18.8432L88.6751 20.3605L90.0015 21.13L91.3368 20.378L91.3456 18.8563L90.0192 18.0911L88.684 18.8432Z" fill="#261F3B"/>
    <path d="M88.7149 18.8607L88.7061 20.378L90.0325 21.1475L91.3677 20.3954L91.3766 18.8738L90.0502 18.1086L88.7149 18.8607Z" fill="#261F3B"/>
    <path d="M88.7459 18.8781L88.737 20.3954L90.0634 21.165L91.3987 20.4129L91.4075 18.8913L90.0811 18.1261L88.7459 18.8781Z" fill="#261F3B"/>
    <path d="M88.7768 18.8913L88.7635 20.4129L90.09 21.1781L91.4252 20.4261L91.4341 18.9088L90.1077 18.1435L88.7768 18.8913Z" fill="#261F3B"/>
    <path d="M88.8034 18.9088L88.7945 20.4304L90.1209 21.1956L91.4562 20.4435L91.465 18.9262L90.1386 18.1567L88.8034 18.9088Z" fill="#261F3B"/>
    <path d="M88.8343 18.9262L88.8255 20.4479L90.1519 21.2131L91.4871 20.461L91.496 18.9437L90.1696 18.1742L88.8343 18.9262Z" fill="#261F3B"/>
    <path d="M88.8653 18.9437L88.8564 20.4654L90.1784 21.2306L91.5137 20.4785L91.5225 18.9612L90.2005 18.1916L88.8653 18.9437Z" fill="#261F3B"/>
    <path d="M88.8918 18.9612L88.8829 20.4785L90.2093 21.2481L91.5446 20.496L91.5534 18.9787L90.227 18.2091L88.8918 18.9612Z" fill="#261F3B"/>
    <path d="M88.9227 18.9787L88.9139 20.496L90.2403 21.2656L91.5756 20.5135L91.5844 18.9918L90.258 18.2266L88.9227 18.9787Z" fill="#261F3B"/>
    <path d="M88.9537 18.9962L88.9448 20.5135L90.2713 21.2831L91.6021 20.531L91.6154 19.0093L90.2889 18.2441L88.9537 18.9962Z" fill="#261F3B"/>
    <path d="M88.9802 19.0137L88.9714 20.531L90.2978 21.3006L91.633 20.5485L91.6419 19.0268L90.3155 18.2616L88.9802 19.0137Z" fill="#261F3B"/>
    <path d="M89.0112 19.0312L89.0023 20.5485L90.3287 21.3181L91.664 20.566L91.6728 19.0443L90.3464 18.2791L89.0112 19.0312Z" fill="#261F3B"/>
    <path d="M89.0421 19.0443L89.0333 20.566L90.3597 21.3312L91.6949 20.5791L91.7038 19.0618L90.3774 18.2922L89.0421 19.0443Z" fill="#261F3B"/>
    <path d="M89.0731 19.0618L89.0598 20.5835L90.3862 21.3487L91.7215 20.5966L91.7303 19.0793L90.4039 18.3097L89.0731 19.0618Z" fill="#261F3B"/>
    <path d="M89.0996 19.0793L89.0907 20.601L90.4172 21.3662L91.7524 20.6141L91.7613 19.0968L90.4348 18.3272L89.0996 19.0793Z" fill="#261F3B"/>
    <path d="M89.1305 19.0968L89.1217 20.6185L90.4481 21.3837L91.7834 20.6316L91.7922 19.1143L90.4658 18.3447L89.1305 19.0968Z" fill="#261F3B"/>
    <path d="M89.1615 19.1143L89.1526 20.6316L90.4746 21.4012L91.8099 20.6491L91.8187 19.1318L90.4967 18.3622L89.1615 19.1143Z" fill="#261F3B"/>
    <path d="M89.188 19.1318L89.1792 20.6491L90.5056 21.4186L91.8408 20.6666L91.8497 19.1449L90.5233 18.3797L89.188 19.1318Z" fill="#261F3B"/>
    <path d="M89.219 19.1493L89.2101 20.6666L90.5365 21.4361L91.8718 20.684L91.8806 19.1624L90.5542 18.3972L89.219 19.1493Z" fill="#261F3B"/>
    <path d="M89.2499 19.1667L89.2411 20.684L90.5675 21.4536L91.9027 20.7015L91.9116 19.1799L90.5852 18.4146L89.2499 19.1667Z" fill="#261F3B"/>
    <path d="M89.2764 19.1842L89.2676 20.7015L90.594 21.4667L91.9293 20.719L91.9381 19.1973L90.6117 18.4321L89.2764 19.1842Z" fill="#261F3B"/>
    <path d="M89.3074 19.1973L89.2986 20.719L90.625 21.4842L91.9602 20.7321L91.9691 19.2148L90.6426 18.4453L89.3074 19.1973Z" fill="#261F3B"/>
    <path d="M89.3383 19.2148L89.3295 20.7365L90.6559 21.5017L91.9912 20.7496L92 19.2323L90.6736 18.4627L89.3383 19.2148Z" fill="#261F3B"/>
</svg>
